<?xml version="1.0" encoding="UTF-8" standalone="no"?>
<svg
   width="1024px"
   height="1024px"
   viewBox="0 0 1024 1024"
   version="1.1"
   id="svg3"
   sodipodi:docname="cda-dark-1.svg"
   inkscape:version="1.3 (0e150ed, 2023-07-21)"
   xmlns:inkscape="http://www.inkscape.org/namespaces/inkscape"
   xmlns:sodipodi="http://sodipodi.sourceforge.net/DTD/sodipodi-0.dtd"
   xmlns="http://www.w3.org/2000/svg"
   xmlns:svg="http://www.w3.org/2000/svg"
   xmlns:rdf="http://www.w3.org/1999/02/22-rdf-syntax-ns#"
   xmlns:cc="http://creativecommons.org/ns#"
   xmlns:dc="http://purl.org/dc/elements/1.1/">
  <sodipodi:namedview
     id="namedview3"
     pagecolor="#ffffff"
     bordercolor="#000000"
     borderopacity="0.25"
     inkscape:showpageshadow="2"
     inkscape:pageopacity="0.0"
     inkscape:pagecheckerboard="0"
     inkscape:deskcolor="#d1d1d1"
     inkscape:zoom="0.84472656"
     inkscape:cx="510.22428"
     inkscape:cy="512"
     inkscape:window-width="1392"
     inkscape:window-height="1212"
     inkscape:window-x="2002"
     inkscape:window-y="610"
     inkscape:window-maximized="0"
     inkscape:current-layer="MacOSX-Icon-Template-Copy-10" />
  <!-- Generator: Sketch 50.2 (55047) - http://www.bohemiancoding.com/sketch -->
  <title
     id="title1">MacOSX Icon Template Copy 10</title>
  <desc
     id="desc1">Created with Sketch.</desc>
  <defs
     id="defs1">
    <rect
       x="312.52717"
       y="752.90636"
       width="398.94567"
       height="156.26358"
       id="rect1" />
  </defs>
  <g
     id="MacOSX-Icon-Template-Copy-10"
     stroke="none"
     stroke-width="1"
     fill="none"
     fill-rule="evenodd">
    <circle
       id="Oval-2"
       stroke="#ffffff"
       stroke-width="30"
       fill="#005073"
       cx="512.47052"
       cy="512.36761"
       r="497" />
    <g
       id="Group-3"
       transform="translate(154.000000, 123.000000)">
      <g
         id="Group-2"
         transform="translate(178.000000, 628.000000)"
         fill="#FFFFFF" />
      <g
         id="Group"
         transform="translate(338.500000, 327.500000) rotate(173.000000) translate(-338.500000, -327.500000) translate(34.000000, 35.000000)">
        <path
           d="M282.696093,227.990023 L494.9607,425.929971 L488.903622,432.425392 L495.811053,451.403403 L250.112419,540.830392 L239.730666,512.306758 L457.919398,432.892554 L255.332,243.976749 L78.5068353,408.868882 L57.8053087,386.669213 L234.620557,221.786326 L76.1486654,88.8126207 L95.6599804,65.559941 L259.764305,203.259819 L515.282621,125.14003 L524.157335,154.167913 L282.696093,227.990023 Z M257.700231,223.074178 L256.537308,219.27043 L255.4081,220.616168 L257.700231,223.074178 Z"
           id="Combined-Shape"
           fill="#FFFFFF" />
        <circle
           id="Oval-Copy"
           stroke="#FFFFFF"
           stroke-width="16"
           fill="#1679B5"
           cx="238.952929"
           cy="524.154813"
           r="60.3805789" />
        <ellipse
           id="Oval-Copy-2"
           stroke="#FFFFFF"
           stroke-width="16"
           fill="#FD6857"
           cx="558.841528"
           cy="129.111663"
           rx="50.1030336"
           ry="50.7453802" />
        <circle
           id="Oval-Copy-4"
           stroke="#FFFFFF"
           stroke-width="16"
           fill="#00BCEB"
           cx="60.3805789"
           cy="60.3805789"
           r="60.3805789" />
        <ellipse
           id="Oval"
           stroke="#FFFFFF"
           stroke-width="16"
           fill="#FBAB18"
           cx="252.442208"
           cy="215.828452"
           rx="104.702493"
           ry="105.34484" />
        <ellipse
           id="Oval-Copy-3"
           stroke="#FFFFFF"
           stroke-width="16"
           fill="#6EBE4A"
           cx="479.190552"
           cy="433.583945"
           rx="91.213215"
           ry="90.5708684" />
        <ellipse
           id="Oval-Copy-5"
           stroke="#FFFFFF"
           stroke-width="16"
           fill="#E2231A"
           cx="62.9499653"
           cy="397.612536"
           rx="50.1030336"
           ry="50.7453802" />
      </g>
    </g>
    <g
       id="Group-4"
       transform="translate(156.750102, 490.325467) rotate(36.000000) translate(-156.750102, -490.325467) translate(64.750102, 418.325467)"
       fill="#FFFFFF">
      <path
         d="M121.364801,119.365079 L121.450458,117.854656 C122.198308,104.667499 132.696867,94.1268886 145.88093,93.3263305 L145.88093,93.3263305 C146.656243,93.2792522 147.246594,92.6125725 147.199515,91.8372596 C147.156426,91.1276388 146.590551,90.5617635 145.88093,90.5186741 L143.826777,90.3939426 C131.784931,89.6627417 122.163435,80.0949851 121.364801,68.057423 L121.364801,68.057423 C121.313611,67.2858487 120.646628,66.701862 119.875054,66.7530523 C119.174815,66.7995098 118.617141,67.357184 118.570683,68.057423 L118.570683,68.057423 C117.771188,80.1079562 108.165961,89.7006301 96.1143923,90.4843647 L95.5868121,90.5186741 C94.8114992,90.5690941 94.2238574,91.2384828 94.2742774,92.0137957 C94.3201266,92.7188249 94.881783,93.2804813 95.5868121,93.3263305 L95.5868121,93.3263305 C107.910495,94.1277612 117.699206,103.997963 118.398441,116.327867 L118.570683,119.365079 C118.614439,120.136654 119.275396,120.726667 120.04697,120.68291 C120.75743,120.64262 121.32451,120.07554 121.364801,119.365079 Z"
         id="Oval-4" />
      <path
         d="M47.3648008,72.3650794 L47.4504576,70.8546558 C48.198308,57.6674986 58.6968674,47.1268886 71.8809298,46.3263305 L71.8809298,46.3263305 C72.6562427,46.2792522 73.2465935,45.6125725 73.1995152,44.8372596 C73.1564259,44.1276388 72.5905506,43.5617635 71.8809298,43.5186741 L69.826777,43.3939426 C57.7849306,42.6627417 48.1634352,33.0949851 47.3648008,21.057423 L47.3648008,21.057423 C47.3136105,20.2858487 46.6466281,19.701862 45.8750538,19.7530523 C45.1748149,19.7995098 44.6171406,20.357184 44.5706831,21.057423 L44.5706831,21.057423 C43.7711881,33.1079562 34.1659607,42.7006301 22.1143923,43.4843647 L21.5868121,43.5186741 C20.8114992,43.5690941 20.2238574,44.2384828 20.2742774,45.0137957 C20.3201266,45.7188249 20.881783,46.2804813 21.5868121,46.3263305 L21.5868121,46.3263305 C33.9104953,47.1277612 43.6992062,56.9979635 44.3984413,69.3278673 L44.5706831,72.3650794 C44.6144395,73.1366536 45.2753956,73.7266666 46.0469698,73.6829103 C46.7574302,73.6426197 47.3245102,73.0755397 47.3648008,72.3650794 Z"
         id="Oval-4-Copy-3" />
      <path
         d="M152.911765,47 L152.963549,46.0912754 C153.453966,37.4852453 160.307468,30.608183 168.911765,30.0882353 L168.911765,30.0882353 C169.415318,30.0578061 169.798862,29.6249274 169.768433,29.1213737 C169.740569,28.6602831 169.372855,28.2925691 168.911765,28.2647059 L167.505401,28.1797209 C159.684047,27.7070855 153.432982,21.4947367 152.911765,13.6764706 L152.911765,13.6764706 C152.878194,13.1729168 152.442769,12.7919199 151.939216,12.8254902 C151.48244,12.8559419 151.118687,13.2196946 151.088235,13.6764706 L151.088235,13.6764706 C150.566459,21.5031208 144.325905,27.7315791 136.498257,28.23817 L136.088235,28.2647059 C135.584682,28.297295 135.202889,28.7319246 135.235478,29.2354783 C135.265127,29.6936006 135.630113,30.0585865 136.088235,30.0882353 L136.088235,30.0882353 C144.130982,30.6087471 150.521136,37.0483235 150.979669,45.0948416 L151.088235,47 C151.11693,47.5035537 151.548403,47.8885027 152.051957,47.8598075 C152.515435,47.8333961 152.885353,47.4634781 152.911765,47 Z"
         id="Oval-4-Copy" />
    </g>
    <path
       d="M864.843454,505.555556 L864.946659,503.740801 C865.810294,488.554786 877.902312,476.418335 893.085056,475.499006 L893.23055,475.490196 C894.125757,475.43599 894.807523,474.66634 894.753317,473.771133 C894.703692,472.951567 894.050116,472.297992 893.23055,472.248366 L890.784031,472.100227 C876.879672,471.258305 865.768192,460.212823 864.843454,446.313725 L864.843454,446.313725 C864.784013,445.420324 864.011583,444.744264 863.118181,444.803704 C862.307607,444.857633 861.662089,445.503152 861.608159,446.313725 L861.608159,446.313725 C860.682427,460.227758 849.589674,471.301934 835.67411,472.204343 L834.995256,472.248366 C834.10005,472.306419 833.421403,473.079189 833.479456,473.974396 C833.532261,474.788675 834.180977,475.437391 834.995256,475.490196 L834.995256,475.490196 C849.264702,476.415554 860.600789,487.842111 861.412691,502.118462 L861.608159,505.555556 C861.658968,506.448957 862.424401,507.132014 863.317803,507.081206 C864.140244,507.034434 864.796681,506.377997 864.843454,505.555556 Z"
       id="path3"
       fill="#FFFFFF" />
    <text
       xml:space="preserve"
       id="text1"
       style="font-size:128px;white-space:pre;shape-inside:url(#rect1);shape-padding:1.18381;fill:#000000"
       transform="matrix(1.3143362,0,0,1.2557825,-65.389639,-228.67186)"><tspan
         x="313.71094"
         y="870.86812"
         id="tspan3"><tspan
           style="font-family:Nasalization;-inkscape-font-specification:'Nasalization, Normal';fill:#ffffff"
           id="tspan2">CDA</tspan></tspan></text>
  </g>
  <metadata
     id="metadata1">
    <rdf:RDF>
      <cc:Work
         rdf:about="">
        <dc:title>MacOSX Icon Template Copy 10</dc:title>
      </cc:Work>
    </rdf:RDF>
  </metadata>
</svg>
