<?xml version="1.0" encoding="UTF-8"?>
<svg width="1260px" height="373px" viewBox="0 0 1260 373" version="1.1" xmlns="http://www.w3.org/2000/svg" xmlns:xlink="http://www.w3.org/1999/xlink">
    <!-- Generator: Sketch 48.2 (47327) - http://www.bohemiancoding.com/sketch -->
    <title>dark - gray - banner</title>
    <desc>Created with Sketch.</desc>
    <defs></defs>
    <g stroke="none" stroke-width="1" fill="none" fill-rule="evenodd">
        <g>
            <g fill-rule="nonzero">
                <path d="M262.909721,150.851616 C336.228372,184.070865 410.747798,218.376399 483.964296,251.802739 C487.871155,253.587485 492.994209,254.80179 492.999991,260.204978 C493.007701,265.617578 487.892357,266.82247 483.975861,268.609099 C410.473483,302.202524 336.942792,335.736813 263.383863,369.211933 C252.177906,374.308249 240.671272,374.242357 229.451822,369.134744 C155.752604,335.571162 82.074157,301.964083 8.41652067,268.313524 C4.62530652,266.581492 -0.14503156,265.271172 0.00337895798,260.005417 C0.142152429,255.078539 4.70625771,253.798341 8.35291616,252.132201 C82.3211039,218.372634 157.039054,184.082161 231.103612,150.529684 C238.932749,146.988431 254.752924,147.229409 262.909721,150.849733 L262.909721,150.851616 Z" fill="#2B5592"></path>
                <path d="M262.909721,118.851616 C336.228372,152.070865 410.747798,186.376399 483.964296,219.802739 C487.871155,221.587485 492.994209,222.80179 492.999991,228.204978 C493.007701,233.617578 487.892357,234.82247 483.975861,236.609099 C410.473483,270.202524 336.942792,303.736813 263.383863,337.211933 C252.177906,342.308249 240.671272,342.242357 229.451822,337.134744 C155.752604,303.571162 82.074157,269.964083 8.41652067,236.313524 C4.62530652,234.581492 -0.14503156,233.271172 0.00337895798,228.005417 C0.142152429,223.078539 4.70625771,221.798341 8.35291616,220.132201 C82.3211039,186.372634 157.039054,152.082161 231.103612,118.529684 C238.932749,114.988431 254.752924,115.229409 262.909721,118.849733 L262.909721,118.851616 Z" fill="#1679B5"></path>
                <path d="M262.909721,82.851616 C336.228372,116.070865 410.747798,150.376399 483.964296,183.802739 C487.871155,185.587485 492.994209,186.80179 492.999991,192.204978 C493.007701,197.617578 487.892357,198.82247 483.975861,200.609099 C410.473483,234.202524 336.942792,267.736813 263.383863,301.211933 C252.177906,306.308249 240.671272,306.242357 229.451822,301.134744 C155.752604,267.571162 82.074157,233.964083 8.41652067,200.313524 C4.62530652,198.581492 -0.14503156,197.271172 0.00337895798,192.005417 C0.142152429,187.078539 4.70625771,185.798341 8.35291616,184.132201 C82.3211039,150.372634 157.039054,116.082161 231.103612,82.5296839 C238.932749,78.988431 254.752924,79.2294094 262.909721,82.8497333 L262.909721,82.851616 Z" fill="#039FD9"></path>
                <path d="M262.909721,43.851616 C336.228372,77.0708647 410.747798,111.376399 483.964296,144.802739 C487.871155,146.587485 492.994209,147.80179 492.999991,153.204978 C493.007701,158.617578 487.892357,159.82247 483.975861,161.609099 C410.473483,195.202524 336.942792,228.736813 263.383863,262.211933 C252.177906,267.308249 240.671272,267.242357 229.451822,262.134744 C155.752604,228.571162 82.074157,194.964083 8.41652067,161.313524 C4.62530652,159.581492 -0.14503156,158.271172 0.00337895798,153.005417 C0.142152429,148.078539 4.70625771,146.798341 8.35291616,145.132201 C82.3211039,111.372634 157.039054,77.0821606 231.103612,43.5296839 C238.932749,39.988431 254.752924,40.2294094 262.909721,43.8497333 L262.909721,43.851616 Z" fill="#E6F5FB"></path>
                <path d="M262.909721,2.85161596 C336.228372,36.0708647 410.747798,70.376399 483.964296,103.802739 C487.871155,105.587485 492.994209,106.80179 492.999991,112.204978 C493.007701,117.617578 487.892357,118.82247 483.975861,120.609099 C410.473483,154.202524 336.942792,187.736813 263.383863,221.211933 C252.177906,226.308249 240.671272,226.242357 229.451822,221.134744 C155.752604,187.571162 82.074157,153.964083 8.41652067,120.313524 C4.62530652,118.581492 -0.14503156,117.271172 0.00337895798,112.005417 C0.142152429,107.078539 4.70625771,105.798341 8.35291616,104.132201 C82.3211039,70.3726337 157.039054,36.0821606 231.103612,2.52968388 C238.932749,-1.01156899 254.752924,-0.770590595 262.909721,2.84973332 L262.909721,2.85161596 Z" fill="#A7A9AB" opacity="0.400000006"></path>
            </g>
            <g transform="translate(543.000000, 63.000000)" fill="#FFFFFF">
                <path d="M698.656364,180.524 C698.656364,164.755921 692.863694,152.87604 681.278182,144.884 C669.907216,136.89196 649.954688,129.764031 621.42,123.5 C594.172591,117.45197 574.970965,108.704057 563.814545,97.256 C554.589045,87.5359514 549.976364,74.9000778 549.976364,59.348 C549.976364,40.9879082 557.699923,26.6240518 573.147273,16.256 C587.307344,6.75195248 606.187155,2 629.787273,2 C654.460123,2 674.841738,7.83194168 690.932727,19.496 C705.092798,29.8640518 713.781802,43.4719158 717,60.32 L698.334545,60.32 C695.116348,46.0639287 686.85643,35.1560378 673.554545,27.596 C661.969033,20.8999665 647.48736,17.552 630.109091,17.552 C608.439892,17.552 592.241872,21.8719568 581.514545,30.512 C572.718138,37.6400356 568.32,46.9279428 568.32,58.376 C568.32,72.2000691 573.254496,82.7839633 583.123636,90.128 C592.77823,97.2560356 609.727152,103.519973 633.970909,108.92 C666.367435,116.480038 688.787211,126.30794 701.230909,138.404 C711.743689,148.772052 717,162.595914 717,179.876 C717,200.180102 708.525539,216.37994 691.576364,228.476 C676.129014,239.492055 655.747399,245 630.430909,245 C604.470779,245 583.338263,238.628064 567.032727,225.884 C552.443563,214.651944 543.432744,199.532095 540,180.524 L558.987273,180.524 C562.205471,197.372084 571.109018,210.007958 585.698182,218.432 C597.712787,225.560036 612.623547,229.124 630.430909,229.124 C653.601934,229.124 671.194485,224.048051 683.209091,213.896 C693.507324,205.255957 698.656364,194.132068 698.656364,180.524 Z"></path>
                <path d="M0,0 L19.0882353,0 C54.4609612,102.459772 81.0979497,179.189097 99,230.190278 L147.852941,92.2819444 L180.205882,0 L198,0 C159.607651,109.778327 130.705979,192.110837 111.294118,247 L86.7058824,247 L0,0 Z"></path>
                <polygon points="381.442478 247 361.79646 247 276.00885 25.0430556 276.00885 247 258 247 258 0 285.176991 0 371.946903 226.416667 453.80531 0 480 0 480 247 462.318584 247 462.318584 26.7583333"></polygon>
            </g>
        </g>
    </g>
</svg>