<?xml version="1.0" encoding="UTF-8"?>
<svg width="1024px" height="1024px" viewBox="0 0 1024 1024" version="1.1" xmlns="http://www.w3.org/2000/svg" xmlns:xlink="http://www.w3.org/1999/xlink">
    <!-- Generator: Sketch 50.2 (55047) - http://www.bohemiancoding.com/sketch -->
    <title>MacOSX Icon Template Copy 10</title>
    <desc>Created with Sketch.</desc>
    <defs></defs>
    <g id="MacOSX-Icon-Template-Copy-10" stroke="none" stroke-width="1" fill="none" fill-rule="evenodd">
        <circle id="Oval-2" stroke="#FFFFFF" stroke-width="30" fill="#005073" cx="503" cy="510" r="497"></circle>
        <g id="Group-3" transform="translate(154.000000, 123.000000)">
            <g id="Group-2" transform="translate(178.000000, 628.000000)" fill="#FFFFFF">
                <path d="M109.386997,119 C106.140335,119 103.424418,117.889591 101.239164,115.66874 C99.0539106,113.447889 97.9613003,110.733557 97.9613003,107.525661 L97.9613003,39.0497667 L82.9767802,53.8553655 C79.9798612,56.8165 76.5771604,59.099007 72.7685759,60.7029549 C68.9599913,62.3069028 64.9329418,63.1088647 60.6873065,63.1088647 C56.4416712,63.1088647 52.3834043,62.3069028 48.5123839,60.7029549 C44.6413635,59.099007 41.2698802,56.8165 38.3978328,53.8553655 L23.2260062,38.8646967 L23.2260062,107.525661 C23.2260062,110.733557 22.1021784,113.447889 19.8544892,115.66874 C17.6067999,117.889591 14.8596654,119 11.6130031,119 C8.36634084,119 5.61920628,117.889591 3.37151703,115.66874 C1.12382777,113.447889 0,110.733557 0,107.525661 L0,11.474339 C0,8.26644327 1.12382777,5.55211064 3.37151703,3.33125972 C5.61920628,1.1104088 8.36634084,0 11.6130031,0 C13.985564,0 16.1707846,0.678583157 18.1687307,2.03576983 L19.6671827,3.14618974 L53.0077399,36.273717 C55.2554292,38.2478067 57.8152591,39.2348367 60.6873065,39.2348367 C63.4344823,39.2348367 65.9318773,38.2478067 68.1795666,36.273717 L102.643963,2.03576983 C104.829215,0.678583157 107.014436,0 109.386997,0 C112.633659,0 115.380794,1.1104088 117.628483,3.33125972 C119.876172,5.55211064 121,8.26644327 121,11.474339 L121,107.525661 C121,110.733557 119.876172,113.447889 117.628483,115.66874 C115.380794,117.889591 112.633659,119 109.386997,119 Z" id="Path"></path>
                <path d="M379,11.4565217 L379,14.5978261 C378.372729,23.8370027 375.895045,32.3061209 371.566874,40.0054348 C367.238703,47.7047486 361.499258,54.1412785 354.348367,59.3152174 C361.499258,64.4891563 367.270066,70.9872797 371.660964,78.8097826 C376.051862,86.6322855 378.498183,95.1629973 379,104.402174 L379,107.543478 C379,110.746393 377.870929,113.456511 375.612753,115.673913 C373.354577,117.891315 370.594625,119 367.332815,119 C364.071005,119 361.27969,117.891315 358.958787,115.673913 C356.637884,113.456511 355.477449,110.746393 355.477449,107.543478 L355.477449,105.695652 C355.226541,100.89128 354.128833,96.4257453 352.184292,92.298913 C350.239752,88.1720808 347.667979,84.5380592 344.468896,81.3967391 C341.269813,78.2554191 337.537606,75.730082 333.272162,73.8206522 C329.006718,71.9112223 324.427707,70.8949282 319.534992,70.7717391 C319.284084,70.8949282 317.715916,70.8949282 317.465008,70.7717391 C312.572293,70.8949282 307.993282,71.9112223 303.727838,73.8206522 C299.462394,75.730082 295.730187,78.2554191 292.531104,81.3967391 C289.332021,84.5380592 286.728885,88.1720808 284.721617,92.298913 C282.71435,96.4257453 281.648005,100.89128 281.522551,105.695652 L281.522551,107.543478 C281.522551,110.746393 280.362116,113.456511 278.041213,115.673913 C275.72031,117.891315 272.928995,119 269.667185,119 C266.405375,119 263.645423,117.891315 261.387247,115.673913 C259.129071,113.456511 258,110.746393 258,107.543478 L258,104.402174 C258.501817,95.1629973 260.948138,86.6322855 265.339036,78.8097826 C269.729934,70.9872797 275.500742,64.4891563 282.651633,59.3152174 C275.500742,54.1412785 269.761297,47.7047486 265.433126,40.0054348 C261.104955,32.3061209 258.627271,23.8370027 258,14.5978261 L258,11.4565217 C258,8.25360717 259.129071,5.54348935 261.387247,3.32608696 C263.645423,1.10868457 266.405375,0 269.667185,0 C272.928995,0 275.72031,1.13948136 278.041213,3.41847826 C280.362116,5.69747516 281.522551,8.43838978 281.522551,11.6413043 L281.522551,12.9347826 C281.648005,17.7391545 282.71435,22.2354863 284.721617,26.423913 C286.728885,30.6123398 289.332021,34.2771582 292.531104,37.4184783 C295.730187,40.5597983 299.462394,43.0543386 303.727838,44.9021739 C307.993282,46.7500092 312.572293,47.7355066 317.465008,47.8586957 L319.534992,47.8586957 C324.427707,47.7355066 329.006718,46.7500092 333.272162,44.9021739 C337.537606,43.0543386 341.269813,40.5597983 344.468896,37.4184783 C347.667979,34.2771582 350.239752,30.6123398 352.184292,26.423913 C354.128833,22.2354863 355.226541,17.7391545 355.477449,12.9347826 L355.477449,11.6413043 C355.477449,8.43838978 356.637884,5.69747516 358.958787,3.41847826 C361.27969,1.13948136 364.071005,0 367.332815,0 C370.594625,0 373.354577,1.10868457 375.612753,3.32608696 C377.870929,5.54348935 379,8.25360717 379,11.4565217 Z" id="Path"></path>
                <path d="M240.015321,83.5217391 C240.015321,88.326111 239.054351,92.8840364 237.132384,97.1956522 C235.210416,101.507268 232.615799,105.264477 229.348454,108.467391 C226.081109,111.670306 222.2052,114.22644 217.720609,116.13587 C213.236018,118.045299 208.495235,119 203.49812,119 L112.108335,119 C108.776925,119 105.926049,117.860519 103.555622,115.581522 C101.185196,113.302525 100,110.56161 100,107.358696 C100,104.155781 101.185196,101.414866 103.555622,99.1358696 C105.926049,96.8568727 108.776925,95.7173913 112.108335,95.7173913 L203.113728,95.7173913 C206.57327,95.7173913 209.552275,94.5163164 212.050833,92.1141304 C214.54939,89.7119445 215.798651,86.8478427 215.798651,83.5217391 C215.798651,80.0724465 214.54939,77.1467511 212.050833,74.7445652 C209.552275,72.3423793 206.57327,71.1413043 203.113728,71.1413043 L178.128275,71.1413043 C173.003028,71.1413043 168.198181,70.2174005 163.71359,68.3695652 C159.228999,66.5217299 155.321057,63.9963928 151.989647,60.7934783 C148.658236,57.5905637 146.031587,53.8333549 144.109619,49.5217391 C142.187651,45.2101234 141.226682,40.5906043 141.226682,35.6630435 C141.226682,30.7354826 142.187651,26.1159636 144.109619,21.8043478 C146.031587,17.4927321 148.658236,13.7355233 151.989647,10.5326087 C155.321057,7.32969413 159.196967,4.77356027 163.617492,2.86413043 C168.038018,0.954700598 172.810832,0 177.936079,0 L262.891665,0 C266.223075,0 269.073951,1.13948136 271.444378,3.41847826 C273.814804,5.69747516 275,8.43838978 275,11.6413043 C275,14.8442189 273.814804,17.5851335 271.444378,19.8641304 C269.073951,22.1431273 266.223075,23.2826087 262.891665,23.2826087 L177.936079,23.2826087 C174.476537,23.4057977 171.529565,24.6376695 169.095072,26.9782609 C166.66058,29.3188523 165.443352,32.2137509 165.443352,35.6630435 C165.443352,38.9891471 166.66058,41.8532489 169.095072,44.2554348 C171.529565,46.6576207 174.540602,47.8586957 178.128275,47.8586957 L203.113728,47.8586957 C208.238975,47.8586957 213.043822,48.8133962 217.528413,50.7228261 C222.013004,52.6322559 225.920946,55.1883898 229.252356,58.3913043 C232.583767,61.5942189 235.210416,65.3514277 237.132384,69.6630435 C239.054351,73.9746592 240.015321,78.5941783 240.015321,83.5217391 Z" id="Path"></path>
            </g>
            <g id="Group" transform="translate(338.500000, 327.500000) rotate(173.000000) translate(-338.500000, -327.500000) translate(34.000000, 35.000000)">
                <path d="M282.696093,227.990023 L494.9607,425.929971 L488.903622,432.425392 L495.811053,451.403403 L250.112419,540.830392 L239.730666,512.306758 L457.919398,432.892554 L255.332,243.976749 L78.5068353,408.868882 L57.8053087,386.669213 L234.620557,221.786326 L76.1486654,88.8126207 L95.6599804,65.559941 L259.764305,203.259819 L515.282621,125.14003 L524.157335,154.167913 L282.696093,227.990023 Z M257.700231,223.074178 L256.537308,219.27043 L255.4081,220.616168 L257.700231,223.074178 Z" id="Combined-Shape" fill="#FFFFFF"></path>
                <circle id="Oval-Copy" stroke="#FFFFFF" stroke-width="16" fill="#1679B5" cx="238.952929" cy="524.154813" r="60.3805789"></circle>
                <ellipse id="Oval-Copy-2" stroke="#FFFFFF" stroke-width="16" fill="#FD6857" cx="558.841528" cy="129.111663" rx="50.1030336" ry="50.7453802"></ellipse>
                <circle id="Oval-Copy-4" stroke="#FFFFFF" stroke-width="16" fill="#00BCEB" cx="60.3805789" cy="60.3805789" r="60.3805789"></circle>
                <ellipse id="Oval" stroke="#FFFFFF" stroke-width="16" fill="#FBAB18" cx="252.442208" cy="215.828452" rx="104.702493" ry="105.34484"></ellipse>
                <ellipse id="Oval-Copy-3" stroke="#FFFFFF" stroke-width="16" fill="#6EBE4A" cx="479.190552" cy="433.583945" rx="91.213215" ry="90.5708684"></ellipse>
                <ellipse id="Oval-Copy-5" stroke="#FFFFFF" stroke-width="16" fill="#E2231A" cx="62.9499653" cy="397.612536" rx="50.1030336" ry="50.7453802"></ellipse>
            </g>
        </g>
        <g id="Group-4" transform="translate(156.750102, 490.325467) rotate(36.000000) translate(-156.750102, -490.325467) translate(64.750102, 418.325467)" fill="#FFFFFF">
            <path d="M121.364801,119.365079 L121.450458,117.854656 C122.198308,104.667499 132.696867,94.1268886 145.88093,93.3263305 L145.88093,93.3263305 C146.656243,93.2792522 147.246594,92.6125725 147.199515,91.8372596 C147.156426,91.1276388 146.590551,90.5617635 145.88093,90.5186741 L143.826777,90.3939426 C131.784931,89.6627417 122.163435,80.0949851 121.364801,68.057423 L121.364801,68.057423 C121.313611,67.2858487 120.646628,66.701862 119.875054,66.7530523 C119.174815,66.7995098 118.617141,67.357184 118.570683,68.057423 L118.570683,68.057423 C117.771188,80.1079562 108.165961,89.7006301 96.1143923,90.4843647 L95.5868121,90.5186741 C94.8114992,90.5690941 94.2238574,91.2384828 94.2742774,92.0137957 C94.3201266,92.7188249 94.881783,93.2804813 95.5868121,93.3263305 L95.5868121,93.3263305 C107.910495,94.1277612 117.699206,103.997963 118.398441,116.327867 L118.570683,119.365079 C118.614439,120.136654 119.275396,120.726667 120.04697,120.68291 C120.75743,120.64262 121.32451,120.07554 121.364801,119.365079 Z" id="Oval-4"></path>
            <path d="M47.3648008,72.3650794 L47.4504576,70.8546558 C48.198308,57.6674986 58.6968674,47.1268886 71.8809298,46.3263305 L71.8809298,46.3263305 C72.6562427,46.2792522 73.2465935,45.6125725 73.1995152,44.8372596 C73.1564259,44.1276388 72.5905506,43.5617635 71.8809298,43.5186741 L69.826777,43.3939426 C57.7849306,42.6627417 48.1634352,33.0949851 47.3648008,21.057423 L47.3648008,21.057423 C47.3136105,20.2858487 46.6466281,19.701862 45.8750538,19.7530523 C45.1748149,19.7995098 44.6171406,20.357184 44.5706831,21.057423 L44.5706831,21.057423 C43.7711881,33.1079562 34.1659607,42.7006301 22.1143923,43.4843647 L21.5868121,43.5186741 C20.8114992,43.5690941 20.2238574,44.2384828 20.2742774,45.0137957 C20.3201266,45.7188249 20.881783,46.2804813 21.5868121,46.3263305 L21.5868121,46.3263305 C33.9104953,47.1277612 43.6992062,56.9979635 44.3984413,69.3278673 L44.5706831,72.3650794 C44.6144395,73.1366536 45.2753956,73.7266666 46.0469698,73.6829103 C46.7574302,73.6426197 47.3245102,73.0755397 47.3648008,72.3650794 Z" id="Oval-4-Copy-3"></path>
            <path d="M152.911765,47 L152.963549,46.0912754 C153.453966,37.4852453 160.307468,30.608183 168.911765,30.0882353 L168.911765,30.0882353 C169.415318,30.0578061 169.798862,29.6249274 169.768433,29.1213737 C169.740569,28.6602831 169.372855,28.2925691 168.911765,28.2647059 L167.505401,28.1797209 C159.684047,27.7070855 153.432982,21.4947367 152.911765,13.6764706 L152.911765,13.6764706 C152.878194,13.1729168 152.442769,12.7919199 151.939216,12.8254902 C151.48244,12.8559419 151.118687,13.2196946 151.088235,13.6764706 L151.088235,13.6764706 C150.566459,21.5031208 144.325905,27.7315791 136.498257,28.23817 L136.088235,28.2647059 C135.584682,28.297295 135.202889,28.7319246 135.235478,29.2354783 C135.265127,29.6936006 135.630113,30.0585865 136.088235,30.0882353 L136.088235,30.0882353 C144.130982,30.6087471 150.521136,37.0483235 150.979669,45.0948416 L151.088235,47 C151.11693,47.5035537 151.548403,47.8885027 152.051957,47.8598075 C152.515435,47.8333961 152.885353,47.4634781 152.911765,47 Z" id="Oval-4-Copy"></path>
        </g>
        <path d="M864.843454,505.555556 L864.946659,503.740801 C865.810294,488.554786 877.902312,476.418335 893.085056,475.499006 L893.23055,475.490196 C894.125757,475.43599 894.807523,474.66634 894.753317,473.771133 C894.703692,472.951567 894.050116,472.297992 893.23055,472.248366 L890.784031,472.100227 C876.879672,471.258305 865.768192,460.212823 864.843454,446.313725 L864.843454,446.313725 C864.784013,445.420324 864.011583,444.744264 863.118181,444.803704 C862.307607,444.857633 861.662089,445.503152 861.608159,446.313725 L861.608159,446.313725 C860.682427,460.227758 849.589674,471.301934 835.67411,472.204343 L834.995256,472.248366 C834.10005,472.306419 833.421403,473.079189 833.479456,473.974396 C833.532261,474.788675 834.180977,475.437391 834.995256,475.490196 L834.995256,475.490196 C849.264702,476.415554 860.600789,487.842111 861.412691,502.118462 L861.608159,505.555556 C861.658968,506.448957 862.424401,507.132014 863.317803,507.081206 C864.140244,507.034434 864.796681,506.377997 864.843454,505.555556 Z" id="Oval-4" fill="#FFFFFF"></path>
    </g>
</svg>