<?xml version="1.0" standalone="no"?>
<!DOCTYPE svg PUBLIC "-//W3C//DTD SVG 1.1//EN" "http://www.w3.org/Graphics/SVG/1.1/DTD/svg11.dtd" >
<svg xmlns="http://www.w3.org/2000/svg">
<metadata>Generated by IcoMoon</metadata>
<defs>
<font id="icomoon" horiz-adv-x="1024">
<font-face units-per-em="1024" ascent="960" descent="-64" />
<missing-glyph horiz-adv-x="1024" />
<glyph unicode="&#x20;" d="" horiz-adv-x="512" />
<glyph unicode="&#xe600;" d="M526.4 960l51.2-51.2-468-468 468-446.4-51.2-58.4-526.4 497.6z" horiz-adv-x="578" />
<glyph unicode="&#xe601;" d="M180.211 960h645.895v-37.895h-645.895v37.895zM879.158-14.316v901.053h-752.842v-901.053h-126.316v-49.684h985.263v49.684h-106.105zM368 819.368h97.684v-76.632h-97.684v76.632zM368 673.684h97.684v-75.789h-97.684v75.789zM368 528.842h97.684v-76.632h-97.684v76.632zM368 383.158h97.684v-76.632h-97.684v76.632zM368 238.316h97.684v-76.632h-97.684v76.632zM293.895 161.684h-97.684v76.632h97.684v-76.632zM293.895 307.368h-97.684v76.632h97.684v-76.632zM293.895 452.211h-97.684v76.632h97.684v-76.632zM293.895 597.895h-97.684v75.789h97.684v-75.789zM293.895 742.737h-97.684v76.632h97.684v-76.632zM634.947-14.316h-266.947v100.211h266.105v-100.211zM637.474 161.684h-97.684v76.632h97.684v-76.632zM637.474 307.368h-97.684v76.632h97.684v-76.632zM637.474 452.211h-97.684v76.632h97.684v-76.632zM637.474 597.895h-97.684v75.789h97.684v-75.789zM637.474 742.737h-97.684v76.632h97.684v-76.632zM809.263 161.684h-97.684v76.632h97.684v-76.632zM809.263 307.368h-97.684v76.632h97.684v-76.632zM809.263 452.211h-97.684v76.632h97.684v-76.632zM809.263 597.895h-97.684v75.789h97.684v-75.789zM809.263 742.737h-97.684v76.632h97.684v-76.632z" horiz-adv-x="985" />
<glyph unicode="&#xe602;" d="M149.105 10.552c0-41.174-33.378-74.552-74.552-74.552s-74.552 33.378-74.552 74.552c0 41.174 33.378 74.552 74.552 74.552s74.552-33.378 74.552-74.552zM855.161 585.045c-2.193 0-4.385 0-6.578 0s-4.385 0-6.578 0h-114.021v85.516c2.193 160.069-120.6 289.439-271.897 289.439s-274.090-129.37-274.090-291.632v-85.516h-116.214c-37.276 0-65.782-30.698-65.782-65.782v-234.621c0-37.276 30.698-65.782 65.782-65.782h10.964c37.276 0 65.782 30.698 65.782 65.782v151.298h646.852v-359.606h-401.268c-37.276 0-65.782-30.698-65.782-65.782v-2.193c0-37.276 30.698-65.782 65.782-65.782h456.086c2.193 0 4.385 0 6.578 0s4.385 0 6.578 0c37.276 0 65.782 30.698 65.782 65.782v510.904c0 37.276-30.698 67.974-67.974 67.974zM311.366 666.176c0 85.516 63.589 153.49 144.719 153.49 78.938 0 144.719-67.974 144.719-153.49v-81.131h-289.439v81.131z" horiz-adv-x="923" />
<glyph unicode="&#xe603;" d="M423.278 693.834c-38.816 0-70.238-33.271-70.238-73.935v-38.816h140.477v38.816c0 40.664-31.422 73.935-70.238 73.935zM852.101 849.097c-260.621-24.029-415.884 97.964-432.52 109.054v1.848c0 0 0 0 0 0s0 0 0 0v-1.848c-16.635-12.939-158.96-133.083-419.581-109.054 0 0-36.968-754.137 417.733-911.249v0c0 0 0 0 0 0s0 0 0 0v0c458.397 157.112 434.368 911.249 434.368 911.249zM236.592 263.162c-20.332 0-35.119 16.635-35.119 35.119 0 20.332 16.635 35.119 35.119 35.119 20.332 0 35.119-16.635 35.119-35.119 1.848-18.484-14.787-35.119-35.119-35.119zM652.477 296.433c0-18.484-14.787-33.271-33.271-33.271-1.848 0-1.848 0-1.848 0s-1.848 0-1.848 0h-225.502c-18.484 0-33.271 14.787-33.271 33.271v0c0 18.484 14.787 33.271 33.271 33.271h195.928v175.596h-314.224v-73.935c0-18.484-14.787-33.271-33.271-33.271h-5.545c-18.484 0-33.271 14.787-33.271 33.271v114.599c0 18.484 14.787 33.271 33.271 33.271h55.451v40.664c0 77.632 59.148 142.325 133.083 142.325s133.083-62.845 133.083-142.325v-40.664h55.451c1.848 0 1.848 0 1.848 0s1.848 0 1.848 0c18.484 0 33.271-14.787 33.271-33.271v-249.531z" horiz-adv-x="852" />
<glyph unicode="&#xe604;" d="M1402.711 651.107c-40.198 0-74.050-31.736-74.050-74.050 0-16.926 6.347-31.736 14.81-42.314l-401.983-165.025-186.182 446.413c29.62 8.463 52.893 35.967 52.893 69.818 0 40.198-31.736 74.050-74.050 74.050s-74.050-31.736-74.050-74.050c0-29.62 19.041-57.124 44.43-67.702l-190.413-450.645-376.595 177.719c4.231 10.579 8.463 21.157 8.463 31.736 0 40.198-31.736 74.050-74.050 74.050-40.198 0-71.934-31.736-71.934-71.934s31.736-74.050 74.050-74.050c8.463 0 14.81 2.116 21.157 4.231l173.488-573.355h933.025l179.835 573.355c6.347-2.116 14.81-4.231 21.157-4.231 40.198 0 74.050 31.736 74.050 74.050s-33.851 71.934-74.050 71.934zM586.050 35.438c-16.926 0-29.62 12.694-29.62 29.62s12.694 29.62 29.62 29.62 29.62-12.694 29.62-29.62-12.694-29.62-29.62-29.62zM918.215 60.826c0-14.81-12.694-25.388-25.388-25.388 0 0-2.116 0-2.116 0s-2.116 0-2.116 0h-179.835c-14.81 0-25.388 12.694-25.388 25.388v0c0 14.81 12.694 25.388 25.388 25.388h156.562v141.752h-251.769v-59.24c0-14.81-12.694-25.388-25.388-25.388h-4.231c-14.81 0-25.388 12.694-25.388 25.388v93.091c0 14.81 12.694 25.388 25.388 25.388h44.43v33.851c0 63.471 48.661 114.248 107.901 114.248s107.901-50.777 107.901-114.248v-33.851h44.43c0 0 2.116 0 2.116 0s2.116 0 2.116 0c14.81 0 25.388-12.694 25.388-25.388v-200.992zM736.264 380.298c-31.736 0-57.124-27.504-57.124-59.24v-31.736h112.132v31.736c0 31.736-25.388 59.24-55.008 59.24z" horiz-adv-x="1477" />
<glyph unicode="&#xe605;" d="M814.437 31.256c0-52.608-42.647-95.256-95.256-95.256s-95.256 42.647-95.256 95.256c0 52.608 42.647 95.256 95.256 95.256s95.256-42.647 95.256-95.256zM83.349 528.967c-21.433 0-42.865 7.144-59.535 23.814-33.34 33.34-33.34 85.73 0 119.070 185.749 185.749 433.414 288.149 695.367 288.149s509.619-102.4 695.367-288.149c33.34-33.34 33.34-85.73 0-119.070s-85.73-33.34-119.070 0c-154.791 154.791-359.591 240.521-576.298 240.521s-421.507-85.73-576.298-238.14c-16.67-19.051-38.102-26.195-59.535-26.195zM288.149 326.549c-21.433 0-42.865 7.144-59.535 23.814-33.34 33.34-33.34 85.73 0 119.070 130.977 130.977 304.819 202.419 490.567 202.419s359.591-71.442 490.567-202.419c33.34-33.34 33.34-85.73 0-119.070s-85.73-33.34-119.070 0c-100.019 100.019-230.995 154.791-373.879 154.791-140.502 0-273.86-54.772-373.879-154.791-11.907-16.67-33.34-23.814-54.772-23.814zM483.423 131.274c-21.433 0-42.865 7.144-59.535 23.814-33.34 33.34-33.34 85.73 0 119.070 78.586 78.586 183.367 121.451 295.293 121.451s216.707-42.865 295.293-121.451c33.34-33.34 33.34-85.73 0-119.070s-85.73-33.34-119.070 0c-47.628 47.628-109.544 73.823-178.605 73.823-66.679 0-130.977-26.195-178.605-73.823-11.907-16.67-33.34-23.814-54.772-23.814z" horiz-adv-x="1438" />
<glyph unicode="&#xe606;" d="M224.505 954.515h84.518v-157.508h-84.518v157.508zM721.989 954.515h84.501v-157.508h-84.501v157.508zM841.565 882.477v-118.115h-149.823v118.115h-347.661v-118.115h-149.823v118.115h-180.547v-929.63h998.794v929.63h-170.94zM946.231 20.074h-866.262v633.842h866.262v-633.842zM139.035 605.902h215.145v-157.492h-215.145v157.492zM399.288 605.902h215.145v-157.492h-215.145v157.492zM659.557 605.902h215.145v-157.492h-215.145v157.492zM139.035 418.623h215.145v-157.508h-215.145v157.508zM399.288 418.623h215.145v-157.508h-215.145v157.508zM659.557 418.623h215.145v-157.508h-215.145v157.508zM139.035 224.628h215.145v-157.508h-215.145v157.508zM399.288 224.628h215.145v-157.508h-215.145v157.508z" />
<glyph unicode="&#xe607;" d="M0 404.497l147.242 140.549 301.176-321.255 655.895 736.209 147.242-120.471-829.908-903.529z" horiz-adv-x="1252" />
<glyph unicode="&#xe608;" d="M0 402.211l141.528 141.528 308.033-316.358 657.691 732.618 141.528-124.878-824.195-899.122z" horiz-adv-x="1249" />
<glyph unicode="&#xe609;" d="M1421.416 629.303c-2.901-55.116-34.81-101.53-75.422-116.034 29.008 23.207 49.314 63.819 49.314 110.232 0 17.405-2.901 31.909-5.802 46.414-60.918 162.448-217.564 287.184-475.739 287.184-275.581 0-498.946-211.762-504.748-443.83-23.207 2.901-46.414 5.802-69.62 5.802-185.654 0-339.399-130.538-339.399-290.085 0-162.448 110.232-290.085 295.887-290.085l1096.521-2.901c0 0 0 0 0 0s0 0 0 0h11.603c240.771 2.901 371.309 110.232 371.309 327.796 2.901 194.357-153.745 353.904-353.904 365.507zM878.958 220.283c14.504 0 26.108-11.603 26.108-26.108s-11.603-26.108-26.108-26.108h-95.728v-63.819h-153.745c-2.901 0-5.802 0-8.703 0-78.323 0-142.142 60.918-153.745 142.142h-133.439v43.513h133.439c8.703 81.224 75.422 142.142 153.745 142.142 2.901 0 5.802 0 8.703 0v0h153.745v-58.017h95.728c14.504 0 26.108-11.603 26.108-26.108s-11.603-26.108-26.108-26.108h-95.728v-101.53h95.728zM1470.731 246.391h-133.439c-8.703-81.224-75.422-142.142-153.745-142.142-2.901 0-5.802 0-8.703 0v0h-153.745v327.796h153.745c2.901 0 5.802 0 8.703 0 78.323 0 142.142-60.918 153.745-142.142h133.439v-43.513z" horiz-adv-x="1778" />
<glyph unicode="&#xe60a;" d="M512 960c-283.927 0-512-228.073-512-512s228.073-512 512-512c283.927 0 512 228.073 512 512s-228.073 512-512 512zM640 357.236l-37.236-37.236-90.764 90.764-90.764-90.764-37.236 37.236 90.764 90.764-90.764 90.764 37.236 37.236 90.764-90.764 90.764 90.764 37.236-37.236-90.764-90.764 90.764-90.764z" />
<glyph unicode="&#xe60b;" d="M168.816 31.514c0-46.617-37.791-84.408-84.408-84.408s-84.408 37.791-84.408 84.408c0 46.617 37.791 84.408 84.408 84.408s84.408-37.791 84.408-84.408zM1303.879 642.36c-2.221 0-4.443 0-6.664-2.221-2.221 0-4.443 2.221-6.664 2.221h-1206.143c-42.204 0-75.523-33.319-75.523-75.523v-308.755c0-42.204 33.319-75.523 75.523-75.523s75.523 33.319 75.523 75.523v235.453h1068.425v-386.499h-904.052c-42.204 0-75.523-33.319-75.523-75.523s33.319-75.523 75.523-75.523h966.247c4.443 0 8.885 2.221 11.106 2.221 0 0 0 0 0 0 42.204 0 75.523 33.319 75.523 75.523v533.102c0 42.204-33.319 75.523-73.302 75.523zM1128.399 895.584v0c-2.221 35.54-31.098 64.416-66.638 64.416s-66.638-28.876-66.638-64.416v0-215.462h135.497v215.462zM319.861 358.039h179.922c13.328 0 24.434 11.106 24.434 24.434s-11.106 24.434-24.434 24.434h-179.922c-13.328 0-24.434-11.106-24.434-24.434s11.106-24.434 24.434-24.434zM319.861 242.534h179.922c13.328 0 24.434 11.106 24.434 24.434s-11.106 26.655-26.655 26.655h-179.922c-13.328 0-24.434-11.106-24.434-24.434s13.328-26.655 26.655-26.655z" horiz-adv-x="1377" />
<glyph unicode="&#xe60c;" d="M603.62 794.148l164.561 164.561 263.298-263.298-164.561-164.561-263.298 263.298zM347.789 22.004l-263.298 263.298 488.199 488.199 263.298-263.298-488.199-488.199zM0-64l310.303 46.545-263.758 256z" />
<glyph unicode="&#xe60d;" d="M271.284 867.025c0-51.349-41.626-92.975-92.975-92.975s-92.975 41.626-92.975 92.975c0 51.349 41.626 92.975 92.975 92.975s92.975-41.626 92.975-92.975zM0 459.463l35.662 219.065c0 0 1.274 53.493 57.313 53.493h169.393c0 0 49.672 5.095 62.408-53.493l31.841-208.876c0 0 6.368-52.219-44.577-67.502h-31.841l-40.756-435.582c0 0-5.095-28.020-28.020-30.567h-67.502c0 0-24.199 3.821-25.473 31.841l-43.303 433.035h-29.294c1.274 0-45.851 11.463-45.851 58.587zM686.488 867.025c0-51.349-41.626-92.975-92.975-92.975s-92.975 41.626-92.975 92.975c0 51.349 41.626 92.975 92.975 92.975s92.975-41.626 92.975-92.975zM415.204 341.015l35.662 337.512c0 0 1.274 53.493 57.313 53.493h169.393c0 0 49.672 5.095 62.408-53.493l31.841-328.597c0 0 6.368-52.219-44.577-67.502h-31.841l-40.756-315.861c0 0-5.095-28.020-28.020-30.567h-67.502c0 0-24.199 3.821-25.473 31.841l-43.303 313.313h-29.294c1.274 0-45.851 12.736-45.851 59.861z" horiz-adv-x="772" />
<glyph unicode="&#xe60e;" d="M271.284 867.025c0-51.349-41.626-92.975-92.975-92.975s-92.975 41.626-92.975 92.975c0 51.349 41.626 92.975 92.975 92.975s92.975-41.626 92.975-92.975zM0 459.463l35.662 219.065c0 0 1.274 53.493 57.313 53.493h169.393c0 0 49.672 5.095 62.408-53.493l31.841-208.876c0 0 6.368-52.219-44.577-67.502h-31.841l-40.756-435.582c0 0-5.095-28.020-28.020-30.567h-67.502c0 0-24.199 3.821-25.473 31.841l-43.303 433.035h-29.294c1.274 0-45.851 11.463-45.851 58.587z" horiz-adv-x="357" />
<glyph unicode="&#xe60f;" d="M271.284 867.025c0-51.349-41.626-92.975-92.975-92.975s-92.975 41.626-92.975 92.975c0 51.349 41.626 92.975 92.975 92.975s92.975-41.626 92.975-92.975zM0 341.015l35.662 337.512c0 0 1.274 53.493 57.313 53.493h169.393c0 0 49.672 5.095 62.408-53.493l31.841-327.323c0 0 6.368-52.219-44.577-67.502h-31.841l-40.756-317.134c0 0-5.095-28.020-28.020-30.567h-67.502c0 0-24.199 3.821-25.473 31.841l-42.030 314.587h-29.294c0-1.274-47.124 11.463-47.124 58.587z" horiz-adv-x="357" />
<glyph unicode="&#xe610;" d="M240.198 839.901c0-66.329-53.77-120.099-120.099-120.099s-120.099 53.77-120.099 120.099c0 66.329 53.77 120.099 120.099 120.099s120.099-53.77 120.099-120.099zM120.099-64v0c-69.531 0-120.099 56.889-120.099 120.099v436.148c0 69.531 56.889 120.099 120.099 120.099v0c69.531 0 120.099-56.889 120.099-120.099v-429.827c0-69.531-50.568-126.42-120.099-126.42z" horiz-adv-x="240" />
<glyph unicode="&#xe611;" d="M512 960c-283.927 0-512-228.073-512-512s228.073-512 512-512c283.927 0 512 228.073 512 512s-228.073 512-512 512zM553.891 308.364c0-23.273-18.618-41.891-41.891-41.891s-41.891 18.618-41.891 41.891v162.909c0 23.273 18.618 41.891 41.891 41.891s41.891-18.618 41.891-41.891v-162.909zM512 552.727c-23.273 0-44.218 18.618-44.218 44.218 0 23.273 18.618 44.218 44.218 44.218s44.218-18.618 44.218-44.218c0-25.6-20.945-44.218-44.218-44.218z" />
<glyph unicode="&#xe612;" d="M130.446 1.223c0-36.022-29.201-65.223-65.223-65.223s-65.223 29.201-65.223 65.223c0 36.022 29.201 65.223 65.223 65.223s65.223-29.201 65.223-65.223zM1050.089 1.223v554.395c0 0 0 6.522 0 6.522 6.522 26.089-6.522 52.178-26.089 65.223l-450.038 319.592c-13.045 13.045-32.611 13.045-52.178 13.045-13.045 0-32.611 0-52.178-13.045l-443.516-313.070c-19.567-13.045-26.089-39.134-26.089-65.223 0 0 0 0 0-6.522v-384.815c0-32.611 32.611-65.223 65.223-65.223s65.223 32.611 65.223 65.223v365.248l391.338 286.981 391.338-280.459v-476.127h-606.573c-39.134 0-65.223-32.611-65.223-65.223s26.089-65.223 65.223-65.223h671.796c39.134-6.522 71.745 26.089 71.745 58.701 0 0 0 0 0 0z" horiz-adv-x="1050" />
<glyph unicode="&#xe613;" d="M129.6 209.6c0-34.021-27.579-61.6-61.6-61.6s-61.6 27.579-61.6 61.6c0 34.021 27.579 61.6 61.6 61.6s61.6-27.579 61.6-61.6zM964 659.2c-1.6 0-3.2-0.8-4.8-0.8s-3.2 0.8-4.8 0.8h-885.6c-30.4 0-55.2-24.8-55.2-55.2v-227.2c0-30.4 24.8-55.2 55.2-55.2s55.2 24.8 55.2 55.2v172h784.8v-284h-664c-30.4 0-55.2-24.8-55.2-55.2s24.8-55.2 55.2-55.2h709.6c3.2 0 5.6 1.6 8.8 1.6 0 0 0 0 0.8 0 30.4 0 55.2 24.8 55.2 55.2v392.8c0 30.4-24.8 55.2-55.2 55.2zM836 844v0c-0.8 26.4-22.4 48-49.6 48s-48.8-21.6-49.6-48v0-159.2h99.2v159.2zM241.6 449.6h132c10.4 0 18.4 8 18.4 18.4s-8 18.4-18.4 18.4h-132c-10.4 0-18.4-8-18.4-18.4s8-18.4 18.4-18.4zM241.6 364.8h132c10.4 0 18.4 8 18.4 18.4s-8 18.4-18.4 18.4h-132c-10.4 0-18.4-8-18.4-18.4s8-18.4 18.4-18.4z" />
<glyph unicode="&#xe614;" d="M1237.047 960h-240.537c-34.362 0-61.852-27.49-61.852-61.852 0-13.745 0-20.617 6.872-27.49h-859.060c-68.725 0-82.47-13.745-82.47-82.47l89.342-302.389c0-68.725 54.98-130.577 130.577-130.577h680.376c6.872 0 13.745 0 20.617 0l13.745-61.852h-852.188c-34.362 0-61.852-27.49-61.852-61.852s27.49-61.852 61.852-61.852h927.785c0 0 6.872 0 6.872 0 6.872 0 13.745 0 13.745 0 34.362 13.745 48.107 48.107 34.362 75.597l-48.107 178.685c13.745 27.49 13.745 41.235 13.745 61.852l48.107 302.389c0 20.617 0 41.235-6.872 54.98h164.94c34.362 0 61.852 27.49 61.852 61.852s-27.49 54.98-61.852 54.98zM982.765 753.826c0 0-13.745-192.43-27.49-254.282s-75.597-75.597-75.597-75.597h-597.906c-82.47 13.745-96.215 61.852-96.215 61.852l-75.597 233.664c-20.617 68.725 0 61.852 0 61.852h810.953c75.597 6.872 61.852-27.49 61.852-27.49zM240.537 11.597c0-41.751-33.846-75.597-75.597-75.597s-75.597 33.846-75.597 75.597c0 41.751 33.846 75.597 75.597 75.597s75.597-33.846 75.597-75.597zM1030.872 11.597c0-41.751-33.846-75.597-75.597-75.597s-75.597 33.846-75.597 75.597c0 41.751 33.846 75.597 75.597 75.597s75.597-33.846 75.597-75.597z" horiz-adv-x="1299" />
<glyph unicode="&#xe615;" d="M400.447 513.788c125.855 0 223.106 102.972 223.106 223.106s-102.972 223.106-223.106 223.106-223.106-102.972-223.106-223.106c0-125.855 97.251-223.106 223.106-223.106zM400.447 862.749c68.648 0 125.855-57.207 125.855-125.855s-57.207-125.855-125.855-125.855c-68.648 0-125.855 57.207-125.855 125.855s57.207 125.855 125.855 125.855zM114.413-6.793c0-31.594-25.612-57.207-57.207-57.207s-57.207 25.612-57.207 57.207c0 31.594 25.612 57.207 57.207 57.207s57.207-25.612 57.207-57.207zM657.877 370.771c-200.223 97.251-371.844 40.045-371.844 40.045-171.62-28.603-234.547-137.296-251.709-188.782-5.721-11.441-11.441-17.162-11.441-28.603 0-34.324 22.883-57.207 57.207-57.207 22.883 0 40.045 11.441 51.486 28.603 0 0 0 0 0 0s0 0 0 0 0 0 0 0c34.324 80.089 97.251 114.413 97.251 114.413 205.944 91.531 371.844-11.441 371.844-11.441 85.81-57.207 91.531-165.899 85.81-223.106h-400.447c-34.324 0-57.207-28.603-57.207-57.207 0-34.324 22.883-57.207 57.207-57.207h446.212c34.324 0 57.207 22.883 57.207 57.207 45.765 251.709-131.575 383.285-131.575 383.285z" horiz-adv-x="801" />
<glyph unicode="&#xe616;" d="M1349.457 634.543l-23.814-7.938c0 15.876 0 31.752-7.938 47.628-55.566 158.76-206.388 285.767-452.465 285.767-261.953 0-476.279-214.326-476.279-444.527-23.814 0-39.69 7.938-63.504 7.938-182.574 0-325.457-134.946-325.457-293.705s103.194-293.705 285.767-293.705h1039.876c0 0 0 0 0 0s0 0 0 0h7.938c230.202 0 349.271 111.132 349.271 325.457 7.938 198.45-142.884 357.209-333.395 373.085zM1539.969 221.767c-31.752-182.574-198.45-174.636-198.45-174.636h-1039.876c-111.132 15.876-150.822 103.194-150.822 103.194-47.628 127.008 15.876 190.512 15.876 190.512 142.884 158.76 333.395 55.566 333.395 55.566-55.566 293.705 198.45 412.775 198.45 412.775 420.713 134.946 508.031-198.45 508.031-198.45l87.318 7.938v-87.318c285.767-55.566 246.078-309.581 246.078-309.581z" horiz-adv-x="1691" />
<glyph unicode="&#xe617;" d="M1021.632 463.033c0 260.676-211.323 471.999-471.999 471.999s-471.999-211.323-471.999-471.999c0-82.711 21.395-160.384 58.787-227.961 7.346-64.005-1.124-138.427-75.204-154.905-92.907-15.033-59.148-75.204-33.779-75.204 0 0 357.778-76.89 644.084 2.549 10.417 2.81 20.693 5.8 30.808 9.273 48.711 15.796 75.566 31.37 116.75 58.345l10.116 8.249c116.55 85.942 192.437 223.747 192.437 379.655zM590.235 173.154c-11.701-10.397-25.209-15.575-40.522-15.575-15.876 0-29.684 5.118-41.526 15.374-11.801 10.276-17.722 24.627-17.722 43.071 0 16.358 5.72 30.146 17.14 41.325 11.44 11.159 25.47 16.739 42.108 16.739 16.337 0 30.126-5.58 41.305-16.739 11.159-11.179 16.759-24.948 16.759-41.325 0-18.204-5.861-32.514-17.542-42.871zM735.787 534.002c-8.951-16.618-19.649-30.969-31.952-43.071-12.323-12.082-34.501-32.414-66.454-60.994-8.831-8.048-15.916-15.113-21.255-21.235s-9.293-11.681-11.882-16.759c-2.609-5.058-4.596-10.156-6.061-15.193-1.405-5.098-3.573-13.969-6.403-26.694-4.957-27.035-20.412-40.563-46.403-40.563-13.507 0-24.867 4.436-34.080 13.267s-13.849 21.957-13.849 39.358c0 21.797 3.392 40.723 10.136 56.699s15.715 30.026 26.874 42.088c11.199 12.082 26.272 26.433 45.219 43.071 16.638 14.551 28.641 25.53 36.047 32.936 7.406 7.426 13.648 15.655 18.706 24.747 5.078 9.092 7.627 18.967 7.627 29.624 0 20.793-7.747 38.335-23.222 52.625-15.434 14.29-35.364 21.415-59.79 21.415-28.56 0-49.634-7.205-63.142-21.616s-24.928-35.665-34.281-63.704c-8.851-29.383-25.59-44.055-50.257-44.055-14.571 0-26.834 5.118-36.829 15.394-10.015 10.256-15.013 21.355-15.013 33.317 0 24.667 7.908 49.695 23.764 75.024s38.977 46.323 69.384 62.941c30.387 16.618 65.872 24.928 106.374 24.928 37.652 0 70.909-6.944 99.771-20.853s51.12-32.795 66.855-56.699c15.695-23.904 23.583-49.875 23.583-77.954 0-22.058-4.516-41.406-13.467-58.044z" />
<glyph unicode="&#xe618;" d="M512 960c-283.927 0-512-228.073-512-512s228.073-512 512-512 512 228.073 512 512-228.073 512-512 512zM498.036 303.709l-118.691 130.327 39.564 39.564 83.782-90.764 183.855 204.8 39.564-34.909-228.073-249.018z" />
<glyph unicode="&#xe619;" d="M1024 801.745l-158.255 158.255-353.745-353.745-353.745 353.745-158.255-158.255 353.745-353.745-353.745-353.745 158.255-158.255 353.745 353.745 353.745-353.745 158.255 158.255-353.745 353.745z" />
<glyph unicode="&#xe61a;" d="M1024 505.279h-454.721v454.721h-114.557v-454.721h-454.721v-114.557h454.721v-454.721h114.557v454.721h454.721z" />
<glyph unicode="&#xe61b;" d="M1024 536.747h-430.080v423.253h-170.667v-423.253h-423.253v-177.493h423.253v-423.253h170.667v423.253h430.080z" />
<glyph unicode="&#xe61c;" d="M0 960v-728.178h295.822v-142.222h147.911v-153.6h512v147.911h147.911v142.222h295.822v733.867h-1399.467zM1262.933 351.289h-295.822v-153.6h-119.467v-119.467h-295.822v119.467h-119.467v153.6h-290.133v483.556h1120.711v-483.556z" horiz-adv-x="1405" />
<glyph unicode="&#xe61d;" d="M1100.339 473.008c0-65.422-53.035-118.458-118.458-118.458s-118.458 53.035-118.458 118.458c0 65.422 53.035 118.458 118.458 118.458s118.458-53.035 118.458-118.458zM1005.573 209.769c0-56.699-45.964-102.663-102.663-102.663s-102.663 45.964-102.663 102.663c0 56.699 45.964 102.663 102.663 102.663s102.663-45.964 102.663-102.663zM779.188 41.296c0-50.884-41.25-92.134-92.134-92.134s-92.134 41.25-92.134 92.134c0 50.884 41.25 92.134 92.134 92.134s92.134-41.25 92.134-92.134zM502.787 22.869c0-47.976-38.893-86.869-86.869-86.869s-86.869 38.893-86.869 86.869c0 47.976 38.893 86.869 86.869 86.869s86.869-38.893 86.869-86.869zM268.504 141.326c0-40.707-33-73.707-73.707-73.707s-73.707 33-73.707 73.707c0 40.707 33 73.707 73.707 73.707s73.707-33 73.707-73.707zM136.884 380.874c0-37.8-30.643-68.442-68.442-68.442s-68.442 30.643-68.442 68.442c0 37.8 30.643 68.442 68.442 68.442s68.442-30.643 68.442-68.442zM157.943 644.113c0-30.53-24.75-55.28-55.28-55.28s-55.28 24.75-55.28 55.28c0 30.53 24.75 55.28 55.28 55.28s55.28-24.75 55.28-55.28zM310.622 859.969c0-23.261-18.857-42.118-42.118-42.118s-42.118 18.857-42.118 42.118c0 23.261 18.857 42.118 42.118 42.118s42.118-18.857 42.118-42.118zM560.699 931.044c0-15.992-12.964-28.956-28.956-28.956s-28.956 12.964-28.956 28.956c0 15.992 12.964 28.956 28.956 28.956s28.956-12.964 28.956-28.956zM802.879 846.807c0-5.815-4.714-10.53-10.53-10.53s-10.53 4.714-10.53 10.53c0 5.815 4.714 10.53 10.53 10.53s10.53-4.714 10.53-10.53z" horiz-adv-x="1100" />
<glyph unicode="&#xe61e;" d="M1033.394-2.936c0-33.725-27.339-61.064-61.064-61.064s-61.064 27.339-61.064 61.064c0 33.725 27.339 61.064 61.064 61.064s61.064-27.339 61.064-61.064zM887.78 175.56l-145.615 145.615c42.275 65.761 70.459 145.615 70.459 230.165 0 225.468-183.193 408.661-408.661 408.661-220.771 0-403.963-183.193-403.963-408.661s183.193-408.661 408.661-408.661c89.248 0 173.798 28.183 239.56 79.853l145.615-145.615c28.183-28.183 70.459-28.183 98.642 0 23.486 28.183 23.486 75.156-4.697 98.642zM136.22 551.339c0 150.312 122.128 267.743 267.743 267.743s267.743-122.128 267.743-267.743c0-70.459-28.183-136.22-75.156-183.193 0 0 0 0 0 0s0 0 0 0c-46.972-51.67-117.431-84.55-197.284-84.55-140.917 0-263.046 122.128-263.046 267.743z" horiz-adv-x="1038" />
<glyph unicode="&#xe61f;" d="M801.657 874.327c-38.757-12.239-79.554-18.359-122.39-18.359-28.558 0-55.076 2.040-81.594 8.159-63.235 12.239-122.39 40.797-173.386 79.554-2.040 2.040-6.12 4.080-8.159 6.12 0 4.080-4.080 6.12-8.159 10.199-4.080-4.080-6.12-6.12-10.199-10.199-2.040-2.040-6.12-4.080-8.159-6.12-48.956-38.757-108.112-67.315-173.386-79.554-24.478-6.12-53.036-8.159-79.554-8.159-42.837 0-83.633 6.12-122.39 18.359-4.080 2.040-10.199 4.080-14.279 4.080v-436.526c0-248.861 175.426-454.884 407.968-505.88 232.542 50.996 407.968 257.020 407.968 505.88v436.526c-4.080 0-8.159-2.040-14.279-4.080zM106.072 231.777c-34.677 65.275-50.996 136.669-50.996 210.104v367.171c26.518-4.080 55.076-8.159 81.594-8.159 30.598 0 61.195 4.080 91.793 8.159 65.275 12.239 126.47 40.797 181.546 79.554 46.916-34.677 101.992-59.155 159.108-73.434l-463.044-583.394zM762.9 441.88c0-106.072-36.717-210.104-104.032-293.737-63.235-77.514-152.988-134.629-248.861-157.068-57.116 14.279-112.191 38.757-161.147 73.434l514.040 652.749v-275.378z" horiz-adv-x="816" />
<glyph unicode="&#xe620;" d="M824.195 883.289c-33.895-10.704-71.359-16.056-108.822-16.056-24.976 0-49.951 1.784-73.143 7.136-57.087 12.488-148.070 37.463-192.669 71.359-1.784 1.784-5.352 3.568-7.136 5.352-3.568 3.568-7.136 5.352-8.92 8.92-3.568-3.568-7.136-5.352-8.92-8.92-1.784-1.784-5.352-3.568-7.136-5.352-44.599-35.679-85.631-73.143-142.718-83.847-24.976-5.352-24.976-7.136-49.951-7.136-37.463 0-74.927-7.136-108.822 3.568-5.352 1.784-10.704 1.784-14.272 3.568v-105.254c8.92 0 17.84-1.784 26.76-1.784 24.976 0 49.951 1.784 73.143 7.136 57.087 12.488 110.606 37.463 155.206 71.359 1.784 1.784 5.352 3.568 7.136 5.352 3.568 3.568 7.136 5.352 8.92 8.92 3.568-3.568 7.136-5.352 8.92-8.92 1.784-1.784 5.352-3.568 7.136-5.352 44.599-35.679 98.118-60.655 155.206-71.359 23.192-5.352 48.167-7.136 73.143-7.136 37.463 0 74.927 5.352 108.822 16.056 3.568 1.784 8.92 3.568 12.488 3.568v-392.474c0-89.199-24.976-173.045-69.575-244.404 101.686 85.631 165.909 212.293 165.909 355.010v394.258c-1.784-1.784-5.352-1.784-10.704-3.568zM331.819 549.686c-32.111 0-58.871-26.76-58.871-60.655v-32.111h115.958v32.111c1.784 33.895-24.976 60.655-57.087 60.655zM556.599 688.836c-23.192 0-44.599 1.784-66.007 7.136-51.735 10.704-99.902 33.895-140.934 66.007-1.784 1.784-3.568 3.568-7.136 5.352s-5.352 5.352-8.92 7.136c-3.568-1.784-5.352-5.352-8.92-7.136-1.784-1.784-3.568-3.568-7.136-5.352-41.031-32.111-89.199-55.303-140.934-66.007-21.408-3.568-42.815-7.136-66.007-7.136-33.895 0-67.791 5.352-99.902 14.272-3.568 1.784-7.136 1.784-12.488 3.568v-358.578c0-203.373 142.718-372.85 333.603-413.882 190.885 41.031 333.603 210.509 333.603 413.882v360.362c-3.568-1.784-7.136-3.568-12.488-3.568-26.76-10.704-60.655-16.056-96.334-16.056zM178.397 196.46c-16.056 0-30.328 12.488-30.328 30.328 0 16.056 12.488 30.328 30.328 30.328 16.056 0 30.328-12.488 30.328-30.328s-14.272-30.328-30.328-30.328zM519.136 223.22c0-14.272-12.488-26.76-26.76-26.76 0 0-1.784 0-1.784 0s-1.784 0-1.784 0h-183.749c-14.272 0-26.76 12.488-26.76 26.76v0c0 14.272 12.488 26.76 26.76 26.76h160.557v144.502h-258.676v-60.655c0-14.272-12.488-26.76-26.76-26.76h-3.568c-14.272 0-26.76 12.488-26.76 26.76v94.551c0 14.272 12.488 26.76 26.76 26.76h46.383v33.895c0 64.223 49.951 115.958 110.606 115.958s110.606-51.735 110.606-115.958v-33.895h46.383c0 0 1.784 0 1.784 0s1.784 0 1.784 0c14.272 0 26.76-12.488 26.76-26.76v-205.157z" horiz-adv-x="838" />
<glyph unicode="&#xe621;" d="M477.977 634.71c-29.874 0-53.109-24.895-53.109-56.428v-29.874h106.217v29.874c0 31.533-23.235 56.428-53.109 56.428zM811.566 805.653h-652.24v-91.28h33.193v-106.217h-33.193v-255.585h33.193v-106.217h-33.193v-71.365h652.24v630.665zM335.248 307.76c-14.937 0-28.214 11.618-28.214 28.214 0 14.937 11.618 28.214 28.214 28.214 14.937 0 28.214-11.618 28.214-28.214s-13.277-28.214-28.214-28.214zM652.24 330.995c0-13.277-11.618-24.895-24.895-24.895 0 0-1.66 0-1.66 0s-1.66 0-1.66 0h-170.943c-13.277 0-24.895 11.618-24.895 24.895v0c0 13.277 11.618 24.895 24.895 24.895h149.368v134.431h-240.648v-56.428c0-13.277-11.618-24.895-24.895-24.895h-3.319c-13.277 0-24.895 11.618-24.895 24.895v87.961c0 13.277 11.618 24.895 24.895 24.895h41.491v31.533c0 59.747 46.47 107.877 101.238 107.877 56.428 0 101.238-48.13 101.238-107.877v-31.533h43.151c0 0 1.66 0 1.66 0s1.66 0 1.66 0c13.277 0 24.895-11.618 24.895-24.895v-190.859zM901.186 960h-843.099c-31.533 0-58.088-23.235-58.088-51.449v-846.418c0-28.214 26.554-51.449 58.088-51.449h76.344v-73.024h111.196v73.024h472.998v-73.024h111.196v73.024h73.024c31.533 0 58.088 23.235 58.088 51.449v846.418c-1.66 28.214-26.554 51.449-59.747 51.449zM856.376 135.157h-740.201v111.196h-39.831v106.217h39.831v255.585h-39.831v106.217h39.831v131.112h740.201v-710.327z" horiz-adv-x="959" />
<glyph unicode="&#xe622;" d="M512 960c-282.4 0-512-229.6-512-512s229.6-512 512-512c282.4 0 512 229.6 512 512s-229.6 512-512 512zM512 12c-240.8 0-436 195.2-436 436s195.2 436 436 436 436-195.2 436-436c0-240.8-195.2-436-436-436z" />
<glyph unicode="&#xe623;" d="M512 960v-76c240.8 0 436-195.2 436-436s-195.2-436-436-436c-79.2 0-152.8 20.8-216.8 57.6l-36.8-66.4c74.4-43.2 161.6-67.2 253.6-67.2 282.4 0 512 229.6 512 512s-229.6 512-512 512z" />
<glyph unicode="&#xe624;" d="M512 960c-282.4 0-512-229.6-512-512s229.6-512 512-512c282.4 0 512 229.6 512 512s-229.6 512-512 512zM512 12c-240.8 0-436 195.2-436 436s195.2 436 436 436 436-195.2 436-436c0-240.8-195.2-436-436-436z" />
<glyph unicode="&#xe625;" d="M512 960c-282.4 0-512-229.6-512-512s229.6-512 512-512c282.4 0 512 229.6 512 512s-229.6 512-512 512zM512 12c-240.8 0-436 195.2-436 436s195.2 436 436 436 436-195.2 436-436c0-240.8-195.2-436-436-436z" />
<glyph unicode="&#xe626;" d="M512 884c240.8 0 436-195.2 436-436 0-104-36-199.2-96.8-273.6l59.2-48c71.2 88 113.6 200 113.6 321.6 0 282.4-229.6 512-512 512v-76z" />
<glyph unicode="&#xe627;" d="M512 960c-281.6 0-512-230.4-512-512s230.4-512 512-512c281.6 0 512 230.4 512 512s-230.4 512-512 512zM512-21.333c-260.267 0-469.333 209.067-469.333 469.333 0 256 204.8 465.067 465.067 469.333v-499.2l388.267 298.667c51.2-76.8 85.333-166.4 85.333-268.8 0-260.267-209.067-469.333-469.333-469.333zM64 418.133h110.933v-21.333h-110.933v21.333zM142.696 186.542l-11.785 17.783 53.35 35.354 11.785-17.783-53.35-35.354zM109.803 656.111l53.344-35.36-11.787-17.781-53.344 35.36 11.787 17.781zM888.292 189.638l-53.344 35.36 11.787 17.781 53.344-35.36-11.787-17.781zM294.568 44.187l-18.18 11.164 33.491 54.541 18.18-11.164-33.491-54.541zM732.047 43.88l-33.485 54.541 18.18 11.162 33.485-54.541-18.18-11.162zM844.8 418.133h110.933v-21.333h-110.933v21.333zM494.933 106.667h21.333v-110.933h-21.333v110.933zM259.010 830.571l33.146-54.752-18.251-11.049-33.146 54.752 18.251 11.049z" />
<glyph unicode="&#xe628;" d="M422.752 960h169.101v-1024h-169.101v1024zM0 960h169.101v-704.587h-169.101v704.587zM0 105.101h169.101v-169.101h-169.101v169.101zM864.294 960h169.101v-169.101h-169.101v169.101zM864.294 649.982h169.101v-713.982h-169.101v713.982z" horiz-adv-x="1033" />
<glyph unicode="&#xe629;" d="M397.645 512.975c122.152 0 223.513 101.36 223.513 223.513s-101.36 223.513-223.513 223.513-223.513-101.36-223.513-223.513c0-122.152 101.36-223.513 223.513-223.513zM397.645 861.239c67.574 0 124.751-57.178 124.751-124.751s-57.178-124.751-124.751-124.751c-67.574 0-124.751 57.178-124.751 124.751s57.178 124.751 124.751 124.751zM114.355-6.822c0-31.578-25.599-57.178-57.178-57.178s-57.178 25.599-57.178 57.178c0 31.578 25.599 57.178 57.178 57.178s57.178-25.599 57.178-57.178zM1039.594 512.975c122.152 0 223.513 101.36 223.513 223.513s-101.36 223.513-223.513 223.513-223.513-101.36-223.513-223.513c0-122.152 101.36-223.513 223.513-223.513zM1039.594 861.239c67.574 0 124.751-57.178 124.751-124.751s-57.178-124.751-124.751-124.751c-67.574 0-124.751 57.178-124.751 124.751s54.579 124.751 124.751 124.751zM1296.893 370.030c-200.122 101.36-371.655 41.584-371.655 41.584-103.959-18.193-166.335-62.376-205.32-109.157-33.787 44.183-64.975 67.574-64.975 67.574-200.122 101.36-369.056 38.985-369.056 38.985-171.533-28.589-231.31-135.147-252.102-187.127-5.198-7.797-10.396-18.193-10.396-28.589 0-31.188 25.99-57.178 57.178-57.178 20.792 0 38.985 12.995 49.381 31.188 0 0 0 0 2.599 2.599 0 0 0 0 0 2.599 0 0 0 0 0 0 33.787 80.569 98.761 114.355 98.761 114.355 207.919 90.964 371.655-12.995 371.655-12.995 28.589-20.792 49.381-44.183 62.376-70.173 0-2.599 0-5.198 0-7.797 0-18.193 7.797-31.188 18.193-41.584 10.396-36.386 10.396-75.371 7.797-101.36h-402.843c-31.188 0-57.178-25.99-57.178-57.178s25.99-57.178 57.178-57.178h444.426c31.188 0 57.178 25.99 57.178 57.178 12.995 72.772 5.198 137.746-10.396 189.726 33.787 72.772 93.563 101.36 93.563 101.36 207.919 90.964 371.655-12.995 371.655-12.995 85.766-59.777 90.964-163.736 85.766-220.914h-400.244c-31.188 0-57.178-25.99-57.178-57.178s25.99-57.178 57.178-57.178h444.426c31.188 0 57.178 25.99 57.178 57.178 41.584 244.305-135.147 374.254-135.147 374.254z" horiz-adv-x="1437" />
<glyph unicode="&#xe62a;" d="M1018.802 512.975c122.152 0 223.513 101.36 223.513 223.513s-101.36 223.513-223.513 223.513-223.513-101.36-223.513-223.513c0-122.152 101.36-223.513 223.513-223.513zM1018.802 861.239c67.574 0 124.751-57.178 124.751-124.751s-57.178-124.751-124.751-124.751c-67.574 0-124.751 57.178-124.751 124.751s57.178 124.751 124.751 124.751zM735.513-6.822c0-31.578-25.599-57.178-57.178-57.178s-57.178 25.599-57.178 57.178c0 31.578 25.599 57.178 57.178 57.178s57.178-25.599 57.178-57.178zM1634.761 512.975c122.152 0 223.513 101.36 223.513 223.513s-101.36 223.513-223.513 223.513-223.513-101.36-223.513-223.513c0-122.152 98.761-223.513 223.513-223.513zM1634.761 861.239c67.574 0 124.751-57.178 124.751-124.751s-57.178-124.751-124.751-124.751c-67.574 0-124.751 57.178-124.751 124.751s54.579 124.751 124.751 124.751zM1892.061 370.030c-200.122 101.36-371.655 41.584-371.655 41.584-90.964-15.594-153.34-54.579-192.325-93.563-28.589 33.787-51.98 51.98-51.98 51.98-200.122 101.36-371.655 41.584-371.655 41.584-96.162-15.594-158.538-57.178-197.523-98.761-38.985 41.584-101.36 83.168-197.523 98.761 0 0-168.934 62.376-371.655-41.584 0 0-176.731-129.949-132.548-374.254 0-31.188 25.99-57.178 57.178-57.178h444.426c31.188 0 57.178 25.99 57.178 57.178s-25.99 57.178-57.178 57.178h-400.244c-5.198 57.178 0 161.137 85.766 220.914 0 0 163.736 106.558 371.655 12.995 0 0 46.782-23.391 80.569-80.569 0-2.599-2.599-7.797-2.599-10.396 0-31.188 25.99-57.178 57.178-57.178 2.599 0 5.198 0 7.797 0s5.198 0 7.797 0c31.188 0 57.178 25.99 57.178 57.178 0 2.599 0 7.797-2.599 10.396 33.787 57.178 80.569 80.569 80.569 80.569 207.919 90.964 371.655-12.995 371.655-12.995 18.193-12.995 33.787-28.589 44.183-44.183 0-2.599 0-2.599-2.599-5.198l7.797-5.198c36.386-57.178 38.985-124.751 36.386-168.934h-397.645c-31.188 0-57.178-25.99-57.178-57.178s25.99-57.178 57.178-57.178h444.426c31.188 0 57.178 25.99 57.178 57.178 15.594 88.365 2.599 161.137-20.792 218.315 33.787 51.98 77.97 72.772 77.97 72.772 207.919 90.964 371.655-12.995 371.655-12.995 85.766-59.777 90.964-163.736 85.766-220.914h-400.244c-31.188 0-57.178-25.99-57.178-57.178s25.99-57.178 57.178-57.178h444.426c31.188 0 57.178 25.99 57.178 57.178 41.584 246.904-135.147 376.853-135.147 376.853zM397.645 512.975c122.152 0 223.513 101.36 223.513 223.513s-101.36 223.513-223.513 223.513c-122.152 0-223.513-101.36-223.513-223.513s101.36-223.513 223.513-223.513zM397.645 861.239c67.574 0 124.751-57.178 124.751-124.751s-57.178-124.751-124.751-124.751c-67.574 0-124.751 57.178-124.751 124.751s57.178 124.751 124.751 124.751z" horiz-adv-x="2032" />
<glyph unicode="&#xe62b;" d="M2184.331 508.592c121.183 0 221.16 99.976 221.16 221.16s-99.976 221.16-221.16 221.16-221.16-99.976-221.16-221.16c0-121.183 99.976-221.16 221.16-221.16zM2184.331 853.964c69.68 0 124.213-54.533 124.213-124.213s-54.533-124.213-124.213-124.213c-69.68 0-124.213 54.533-124.213 124.213s57.562 124.213 124.213 124.213zM2805.396 508.592c121.183 0 221.16 99.976 221.16 221.16s-99.976 221.16-221.16 221.16c-121.183 0-221.16-99.976-221.16-221.16s99.976-221.16 221.16-221.16zM2805.396 853.964c69.68 0 124.213-54.533 124.213-124.213s-54.533-124.213-124.213-124.213c-69.68 0-124.213 54.533-124.213 124.213s57.562 124.213 124.213 124.213zM3062.911 366.201c-199.953 103.006-369.609 39.385-369.609 39.385-124.213-21.207-166.627-63.621-190.864-106.036-33.325 42.414-60.592 66.651-60.592 66.651-199.953 103.006-369.609 39.385-369.609 39.385-93.917-15.148-139.361-42.414-166.627-72.71-21.207 24.237-39.385 36.355-39.385 36.355-202.982 103.006-372.639 39.385-372.639 39.385-90.888-15.148-148.45-51.503-187.834-90.888-24.237 36.355-72.71 69.68-178.746 87.858 0 0-169.657 60.592-369.609-39.385 0 0-30.296-21.207-60.592-63.621-21.207 42.414-63.621 84.828-187.834 103.006 0 0-169.657 60.592-369.609-39.385 0 0-175.716-130.272-133.302-372.639 0-30.296 24.237-57.562 57.562-57.562h442.32c30.296 0 57.562 24.237 57.562 57.562 0 30.296-24.237 57.562-57.562 57.562h-399.905c-6.059 57.562 0 160.568 87.858 218.13 0 0 163.598 106.036 369.609 15.148 0 0 45.444-24.237 81.799-81.799-21.207-57.562-33.325-127.243-18.178-209.041 0-30.296 24.237-57.562 57.562-57.562h442.32c30.296 0 57.562 24.237 57.562 57.562 0 30.296-24.237 57.562-57.562 57.562h-402.935c-6.059 57.562 0 160.568 87.858 218.13 0 0 163.598 106.036 369.609 15.148 0 0 33.325-18.178 63.621-54.533 0-3.030 0-3.030-3.030-6.059-6.059-9.089-9.089-18.178-9.089-30.296 0-30.296 24.237-57.562 57.562-57.562 21.207 0 39.385 12.118 48.473 30.296 0 0 0 0 3.030 3.030 0 0 0 0 0 3.030 0 0 0 0 0 0 33.325 78.769 96.947 112.095 96.947 112.095 209.041 90.888 372.639-15.148 372.639-15.148 87.858-60.592 90.888-163.598 87.858-221.16h-399.905c-30.296 0-57.562-24.237-57.562-57.562 0-30.296 24.237-57.562 57.562-57.562h445.349c30.296 0 57.562 24.237 57.562 57.562 18.178 103.006-3.030 187.834-33.325 248.426 27.266 30.296 51.503 42.414 51.503 42.414 206.012 90.888 369.609-15.148 369.609-15.148 84.828-60.592 90.888-163.598 87.858-218.13h-402.935c-30.296 0-57.562-24.237-57.562-57.562 0-30.296 24.237-57.562 57.562-57.562h442.32c30.296 0 57.562 24.237 57.562 57.562 15.148 81.799 3.030 151.479-18.178 209.041 33.325 57.562 81.799 81.799 81.799 81.799 206.012 90.888 369.609-15.148 369.609-15.148 84.828-60.592 90.888-163.598 87.858-218.13h-399.905c-30.296 0-57.562-24.237-57.562-57.562 0-30.296 24.237-57.562 57.562-57.562h442.32c30.296 0 57.562 24.237 57.562 57.562 42.414 245.396-133.302 375.669-133.302 375.669zM1014.911 508.592c121.183 0 221.16 99.976 221.16 221.16s-99.976 221.16-221.16 221.16c-121.183 0-221.16-99.976-221.16-221.16s99.976-221.16 221.16-221.16zM1014.911 853.964c69.68 0 124.213-54.533 124.213-124.213s-54.533-124.213-124.213-124.213c-69.68 0-124.213 54.533-124.213 124.213s57.562 124.213 124.213 124.213zM396.876 508.592c121.183 0 221.16 99.976 221.16 221.16s-99.976 221.16-221.16 221.16-221.16-96.947-221.16-221.16c0-121.183 99.976-221.16 221.16-221.16zM396.876 853.964c69.68 0 124.213-54.533 124.213-124.213s-54.533-124.213-124.213-124.213c-69.68 0-124.213 57.562-124.213 124.213 0 69.68 54.533 124.213 124.213 124.213zM1608.71 511.621c124.213 0 224.189 99.976 224.189 224.189s-99.976 224.189-224.189 224.189-224.189-99.976-224.189-224.189c0-124.213 99.976-224.189 224.189-224.189zM1608.71 860.024c69.68 0 124.213-57.562 124.213-124.213 0-69.68-57.562-124.213-124.213-124.213-69.68 0-124.213 57.562-124.213 124.213 0 69.68 54.533 124.213 124.213 124.213zM1323.929-6.438c0-31.791-25.771-57.562-57.562-57.562s-57.562 25.771-57.562 57.562c0 31.791 25.771 57.562 57.562 57.562s57.562-25.771 57.562-57.562z" horiz-adv-x="3202" />
<glyph unicode="&#xe62c;" d="M1003.102 458.449c0-276.999-224.552-501.551-501.551-501.551s-501.551 224.552-501.551 501.551c0 276.999 224.552 501.551 501.551 501.551s501.551-224.552 501.551-501.551zM2445.061 458.449c0-276.999-224.552-501.551-501.551-501.551s-501.551 224.552-501.551 501.551c0 276.999 224.552 501.551 501.551 501.551s501.551-224.552 501.551-501.551zM3907.918 458.449c0-276.999-224.552-501.551-501.551-501.551s-501.551 224.552-501.551 501.551c0 276.999 224.552 501.551 501.551 501.551s501.551-224.552 501.551-501.551z" horiz-adv-x="3929" />
<glyph unicode="&#xe62d;" d="M512 960c-283.927 0-512-228.073-512-512s228.073-512 512-512c283.927 0 512 228.073 512 512s-228.073 512-512 512zM349.091 378.182c-30.255 0-53.527 23.273-53.527 53.527s23.273 53.527 53.527 53.527 53.527-23.273 53.527-53.527-23.273-53.527-53.527-53.527zM512 378.182c-30.255 0-53.527 23.273-53.527 53.527s23.273 53.527 53.527 53.527 53.527-23.273 53.527-53.527-23.273-53.527-53.527-53.527zM674.909 378.182c-30.255 0-53.527 23.273-53.527 53.527s23.273 53.527 53.527 53.527c30.255 0 53.527-23.273 53.527-53.527s-23.273-53.527-53.527-53.527z" />
<glyph unicode="&#xe62e;" d="M1164.868 60.614v0l-5.418 5.418c0 0 0 0 0 0l-498.455 850.624c-16.254 27.090-43.344 43.344-75.852 43.344s-65.016-21.672-75.852-54.18l-493.037-834.37c-10.836-16.254-16.254-32.508-16.254-48.762 0-48.762 37.926-81.27 81.27-81.27h1007.746c48.762 0 81.27 37.926 81.27 81.27 5.418 10.836 0 27.090-5.418 37.926zM585.143 66.032c-37.926 0-75.852 32.508-75.852 70.434s32.508 70.434 75.852 70.434c37.926 0 75.852-32.508 75.852-70.434s-32.508-70.434-75.852-70.434zM644.741 358.603c0-32.508-27.090-54.18-54.18-54.18-32.508 0-54.18 27.090-54.18 54.18v216.72c0 32.508 27.090 54.18 54.18 54.18 32.508 0 54.18-27.090 54.18-54.18v-216.72z" horiz-adv-x="1176" />
<glyph unicode="&#xe62f;" d="M800.582 341.876v0l-3.724 3.724c0 0 0 0 0 0l-342.575 584.611c-11.171 18.618-29.789 29.789-52.131 29.789s-44.684-14.895-52.131-37.236l-338.851-573.44c-7.447-11.171-11.171-22.342-11.171-33.513 0-33.513 26.065-55.855 55.855-55.855h692.596c33.513 0 55.855 26.065 55.855 55.855 3.724 7.447 0 18.618-3.724 26.065zM402.153 345.6c-26.065 0-52.131 22.342-52.131 48.407s22.342 48.407 52.131 48.407c26.065 0 52.131-22.342 52.131-48.407s-22.342-48.407-52.131-48.407zM443.113 546.676c0-22.342-18.618-37.236-37.236-37.236-22.342 0-37.236 18.618-37.236 37.236v148.945c0 22.342 18.618 37.236 37.236 37.236 22.342 0 37.236-18.618 37.236-37.236v-148.945zM230.865 25.367c0-49.356-40.011-89.367-89.367-89.367s-89.367 40.011-89.367 89.367c0 49.356 40.011 89.367 89.367 89.367s89.367-40.011 89.367-89.367zM487.796 25.367c0-49.356-40.011-89.367-89.367-89.367s-89.367 40.011-89.367 89.367c0 49.356 40.011 89.367 89.367 89.367s89.367-40.011 89.367-89.367zM748.451 25.367c0-49.356-40.011-89.367-89.367-89.367s-89.367 40.011-89.367 89.367c0 49.356 40.011 89.367 89.367 89.367s89.367-40.011 89.367-89.367z" horiz-adv-x="808" />
<glyph unicode="&#xe630;" d="M544.582 441.018c0-17.994-14.587-32.582-32.582-32.582s-32.582 14.587-32.582 32.582c0 17.994 14.587 32.582 32.582 32.582s32.582-14.587 32.582-32.582zM512 510.836c13.964 0 23.273 11.636 23.273 23.273v95.418c0 13.964-11.636 23.273-23.273 23.273s-23.273-11.636-23.273-23.273v-95.418c0-11.636 9.309-23.273 23.273-23.273zM512 960c-283.927 0-512-228.073-512-512s228.073-512 512-512c283.927 0 512 228.073 512 512s-228.073 512-512 512zM349.091 145.455c-30.255 0-53.527 23.273-53.527 53.527s23.273 53.527 53.527 53.527 53.527-23.273 53.527-53.527-23.273-53.527-53.527-53.527zM512 145.455c-30.255 0-53.527 23.273-53.527 53.527s23.273 53.527 53.527 53.527 53.527-23.273 53.527-53.527-23.273-53.527-53.527-53.527zM674.909 145.455c-30.255 0-53.527 23.273-53.527 53.527s23.273 53.527 53.527 53.527c30.255 0 53.527-23.273 53.527-53.527s-23.273-53.527-53.527-53.527zM728.436 354.909h-432.873c-20.945 0-37.236 16.291-37.236 34.909 0 9.309 2.327 16.291 6.982 20.945l211.782 360.727c4.655 13.964 18.618 23.273 32.582 23.273s25.6-6.982 30.255-18.618v0l214.109-365.382c0 0 0 0 0 0l2.327-2.327c2.327-4.655 4.655-11.636 4.655-16.291 4.655-23.273-11.636-37.236-32.582-37.236z" />
<glyph unicode="&#xe631;" d="M512 431.709c13.964 0 23.273 11.636 23.273 23.273v95.418c0 13.964-11.636 23.273-23.273 23.273-13.964 0-23.273-11.636-23.273-23.273v-95.418c0-11.636 9.309-23.273 23.273-23.273zM544.582 359.564c0-17.994-14.587-32.582-32.582-32.582s-32.582 14.587-32.582 32.582c0 17.994 14.587 32.582 32.582 32.582s32.582-14.587 32.582-32.582zM512 960c-283.927 0-512-228.073-512-512s228.073-512 512-512c283.927 0 512 228.073 512 512s-228.073 512-512 512zM730.764 273.455h-437.527c-20.945 0-37.236 16.291-37.236 37.236 0 9.309 2.327 16.291 6.982 23.273l214.109 365.382c4.655 13.964 18.618 23.273 34.909 23.273 13.964 0 25.6-6.982 32.582-18.618v0l218.764-370.036c0 0 0 0 0 0l2.327-2.327c2.327-4.655 4.655-11.636 4.655-16.291-2.327-25.6-18.618-41.891-39.564-41.891z" />
</font>
</defs>
</svg>
